<svg width="91" height="28" viewBox="0 0 91 28" fill="none" xmlns="http://www.w3.org/2000/svg">
<path d="M6.85547 21.1758C5.59245 21.1758 4.49056 20.9886 3.5498 20.6143C2.60905 20.2399 1.87826 19.6621 1.35742 18.8809C0.836589 18.0996 0.572917 17.1003 0.566406 15.8828H4.31641C4.34245 16.3255 4.45475 16.6999 4.65332 17.0059C4.85189 17.3118 5.13184 17.543 5.49316 17.6992C5.85449 17.8555 6.28906 17.9336 6.79688 17.9336C7.22005 17.9336 7.57487 17.8815 7.86133 17.7773C8.14779 17.6732 8.36426 17.5283 8.51074 17.3428C8.65723 17.1572 8.73047 16.944 8.73047 16.7031C8.73047 16.4818 8.66048 16.2881 8.52051 16.1221C8.38053 15.9561 8.15104 15.8047 7.83203 15.668C7.51302 15.5312 7.08333 15.4076 6.54297 15.2969L5.07812 14.9844C3.79557 14.7109 2.78483 14.2438 2.0459 13.583C1.30697 12.9222 0.9375 12.0221 0.9375 10.8828C0.9375 9.95833 1.18815 9.14941 1.68945 8.45605C2.19076 7.7627 2.88249 7.22233 3.76465 6.83496C4.64681 6.44759 5.66406 6.25391 6.81641 6.25391C7.99479 6.25391 9.01204 6.45085 9.86816 6.84473C10.7243 7.23861 11.3851 7.79199 11.8506 8.50488C12.3161 9.21777 12.5521 10.0495 12.5586 11H8.76953C8.73698 10.5247 8.56283 10.1553 8.24707 9.8916C7.93132 9.62793 7.45443 9.49609 6.81641 9.49609C6.41276 9.49609 6.08073 9.54329 5.82031 9.6377C5.5599 9.7321 5.36784 9.86393 5.24414 10.0332C5.12044 10.2025 5.05859 10.3945 5.05859 10.6094C5.05859 10.8372 5.12533 11.0374 5.25879 11.21C5.39225 11.3825 5.60384 11.5322 5.89355 11.6592C6.18327 11.7861 6.55599 11.8984 7.01172 11.9961L8.20312 12.25C9.00391 12.4193 9.69238 12.6439 10.2686 12.9238C10.8447 13.2038 11.3167 13.5309 11.6846 13.9053C12.0524 14.2796 12.3226 14.7012 12.4951 15.1699C12.6676 15.6387 12.7539 16.1497 12.7539 16.7031C12.7539 17.6602 12.5179 18.4723 12.0459 19.1396C11.5739 19.807 10.8984 20.3132 10.0195 20.6582C9.14062 21.0033 8.08594 21.1758 6.85547 21.1758ZM17.2422 14.8672V21H13.3164V6.44922H17.1445V12.875H16.959C17.2064 12.0482 17.6084 11.3532 18.165 10.79C18.7217 10.2269 19.5013 9.94531 20.5039 9.94531C21.2786 9.94531 21.9508 10.1211 22.5205 10.4727C23.0902 10.8242 23.5312 11.3092 23.8438 11.9277C24.1562 12.5462 24.3125 13.2526 24.3125 14.0469V21H20.3867V14.8672C20.3867 14.3268 20.25 13.902 19.9766 13.5928C19.7031 13.2835 19.319 13.1289 18.8242 13.1289C18.5052 13.1289 18.2269 13.1989 17.9893 13.3389C17.7516 13.4788 17.5677 13.6774 17.4375 13.9346C17.3073 14.1917 17.2422 14.5026 17.2422 14.8672ZM30.5684 21.1953C29.3835 21.1953 28.3678 20.9593 27.5215 20.4873C26.6751 20.0153 26.029 19.3577 25.583 18.5146C25.137 17.6715 24.9141 16.6901 24.9141 15.5703C24.9141 14.4505 25.137 13.4691 25.583 12.626C26.029 11.7829 26.6751 11.1253 27.5215 10.6533C28.3678 10.1813 29.3835 9.94531 30.5684 9.94531C31.7533 9.94531 32.7656 10.1813 33.6055 10.6533C34.4453 11.1253 35.0882 11.7829 35.5342 12.626C35.9801 13.4691 36.2031 14.4505 36.2031 15.5703C36.2031 16.6901 35.9801 17.6715 35.5342 18.5146C35.0882 19.3577 34.4453 20.0153 33.6055 20.4873C32.7656 20.9593 31.7533 21.1953 30.5684 21.1953ZM30.5684 18.2656C30.9069 18.2656 31.1982 18.1582 31.4424 17.9434C31.6865 17.7285 31.8737 17.4176 32.0039 17.0107C32.1341 16.6038 32.1992 16.1172 32.1992 15.5508C32.1992 14.9779 32.1341 14.4928 32.0039 14.0957C31.8737 13.6986 31.6865 13.3958 31.4424 13.1875C31.1982 12.9792 30.9069 12.875 30.5684 12.875C30.2233 12.875 29.9271 12.9792 29.6797 13.1875C29.4323 13.3958 29.2435 13.6986 29.1133 14.0957C28.9831 14.4928 28.918 14.9779 28.918 15.5508C28.918 16.1172 28.9831 16.6038 29.1133 17.0107C29.2435 17.4176 29.4323 17.7285 29.6797 17.9434C29.9271 18.1582 30.2233 18.2656 30.5684 18.2656ZM36.8047 21V10.082H40.6133V12.1719H40.7305C40.9258 11.3971 41.2399 10.8324 41.6729 10.4775C42.1058 10.1227 42.612 9.94531 43.1914 9.94531C43.3607 9.94531 43.5299 9.95833 43.6992 9.98438C43.8685 10.0104 44.0312 10.0495 44.1875 10.1016V13.4414C43.9922 13.3698 43.7529 13.3193 43.4697 13.29C43.1865 13.2607 42.944 13.2461 42.7422 13.2461C42.3581 13.2461 42.013 13.3324 41.707 13.5049C41.401 13.6774 41.1618 13.9183 40.9893 14.2275C40.8167 14.5368 40.7305 14.8997 40.7305 15.3164V21H36.8047ZM51.3125 10.082V12.9336H44.125V10.082H51.3125ZM45.5117 7.48438H49.4375V17.4941C49.4375 17.722 49.4961 17.8929 49.6133 18.0068C49.7305 18.1208 49.9193 18.1777 50.1797 18.1777C50.2969 18.1777 50.4678 18.1631 50.6924 18.1338C50.917 18.1045 51.0651 18.0768 51.1367 18.0508L51.6055 20.8535C51.1562 20.9772 50.7331 21.0602 50.3359 21.1025C49.9388 21.1449 49.5645 21.166 49.2129 21.166C47.9889 21.166 47.0661 20.8861 46.4443 20.3262C45.8226 19.7663 45.5117 18.9427 45.5117 17.8555V7.48438ZM51.9531 21V6.44922H55.8984V17.8164H61.7773V21H51.9531ZM62.3203 21V10.082H66.2461V21H62.3203ZM64.2734 8.96875C63.7396 8.96875 63.2839 8.7928 62.9062 8.44089C62.5286 8.08898 62.3398 7.66669 62.3398 7.17401C62.3398 6.67129 62.5286 6.24577 62.9062 5.89746C63.2839 5.54915 63.7396 5.375 64.2734 5.375C64.8054 5.375 65.2607 5.5488 65.6392 5.89641C66.0178 6.24402 66.207 6.66972 66.207 7.1735C66.207 7.66721 66.0178 8.08984 65.6392 8.44141C65.2607 8.79297 64.8054 8.96875 64.2734 8.96875ZM71.1641 14.8672V21H67.2383V10.082H70.9199L70.998 12.875H70.8809C71.1283 12.0482 71.5303 11.3532 72.0869 10.79C72.6436 10.2269 73.4232 9.94531 74.4258 9.94531C75.2005 9.94531 75.8727 10.1211 76.4424 10.4727C77.012 10.8242 77.4531 11.3092 77.7656 11.9277C78.0781 12.5462 78.2344 13.2526 78.2344 14.0469V21H74.3086V14.8672C74.3086 14.3268 74.1719 13.902 73.8984 13.5928C73.625 13.2835 73.2409 13.1289 72.7461 13.1289C72.4271 13.1289 72.1488 13.1989 71.9111 13.3389C71.6735 13.4788 71.4896 13.6774 71.3594 13.9346C71.2292 14.1917 71.1641 14.5026 71.1641 14.8672ZM82.7422 18.4219V13.7539H83.2891L85.9258 10.082H90.3398L85.9062 15.8047H84.793L82.7422 18.4219ZM79.2266 21V6.44922H83.1523V21H79.2266ZM85.9648 21L83.4648 16.6836L86.0234 13.8906L90.4375 21H85.9648Z" fill="#0F172A"/>
</svg>
